<svg xmlns="http://www.w3.org/2000/svg" viewBox="0 0 1200 1500" width="1200" height="1500" fill="none"><rect width="1200" height="1500" fill="#2E3191"/><rect x="8.3" y="977.7" width="29.5" height="522.3" fill="#27AAE1" opacity="0.95"/><rect x="54.5" y="362.5" width="29.5" height="1137.5" fill="#ffffff" opacity="0.37"/><rect x="100.6" y="877.3" width="29.5" height="622.7" fill="#ffffff" opacity="0.15"/><rect x="146.8" y="622.7" width="29.5" height="877.3" fill="#ffffff" opacity="0.17"/><rect x="192.9" y="130.2" width="29.5" height="1369.8" fill="#ffffff" opacity="0.17"/><rect x="239.1" y="266.7" width="29.5" height="1233.3" fill="#27AAE1" opacity="0.95"/><rect x="285.2" y="816.1" width="29.5" height="683.9" fill="#ffffff" opacity="0.35"/><rect x="331.4" y="509.8" width="29.5" height="990.2" fill="#ffffff" opacity="0.37"/><rect x="377.5" y="1314.9" width="29.5" height="185.1" fill="#ffffff" opacity="0.35"/><rect x="423.7" y="1130.0" width="29.5" height="370.0" fill="#ffffff" opacity="0.21"/><rect x="469.8" y="954.9" width="29.5" height="545.1" fill="#27AAE1" opacity="0.95"/><rect x="516.0" y="1001.0" width="29.5" height="499.0" fill="#ffffff" opacity="0.23"/><rect x="562.2" y="1294.8" width="29.5" height="205.2" fill="#ffffff" opacity="0.30"/><rect x="608.3" y="894.9" width="29.5" height="605.1" fill="#ffffff" opacity="0.42"/><rect x="654.5" y="869.5" width="29.5" height="630.5" fill="#ffffff" opacity="0.17"/><rect x="700.6" y="1283.1" width="29.5" height="216.9" fill="#27AAE1" opacity="0.95"/><rect x="746.8" y="954.7" width="29.5" height="545.3" fill="#ffffff" opacity="0.30"/><rect x="792.9" y="157.5" width="29.5" height="1342.5" fill="#ffffff" opacity="0.36"/><rect x="839.1" y="466.2" width="29.5" height="1033.8" fill="#ffffff" opacity="0.26"/><rect x="885.2" y="770.8" width="29.5" height="729.2" fill="#ffffff" opacity="0.38"/><rect x="931.4" y="846.7" width="29.5" height="653.3" fill="#27AAE1" opacity="0.95"/><rect x="977.5" y="640.2" width="29.5" height="859.8" fill="#ffffff" opacity="0.16"/><rect x="1023.7" y="1112.9" width="29.5" height="387.1" fill="#ffffff" opacity="0.22"/><rect x="1069.8" y="1238.2" width="29.5" height="261.8" fill="#ffffff" opacity="0.34"/><rect x="1116.0" y="720.1" width="29.5" height="779.9" fill="#ffffff" opacity="0.37"/><rect x="1162.2" y="1258.5" width="29.5" height="241.5" fill="#27AAE1" opacity="0.95"/><line x1="0" y1="750" x2="1200" y2="750" stroke="#27AAE1" stroke-width="1.5" opacity="0.5"/></svg>