<svg xmlns="http://www.w3.org/2000/svg" viewBox="0 0 1600 1000" width="1600" height="1000" fill="none"><rect width="1600" height="1000" fill="#f6f7f9"/><path d="M0 90.9090909090909 L177.77777777777777 90.9090909090909 L177.77777777777777 181.8181818181818 Z" fill="#2E3191" opacity="0.24"/><path d="M0 272.72727272727275 L177.77777777777777 272.72727272727275 L0 181.8181818181818 Z" fill="#2E3191" opacity="0.18"/><path d="M0 454.5454545454545 L177.77777777777777 454.5454545454545 L0 363.6363636363636 Z" fill="#2E3191" opacity="0.23"/><path d="M0 454.5454545454545 L177.77777777777777 454.5454545454545 L177.77777777777777 545.4545454545454 Z" fill="#2E3191" opacity="0.24"/><path d="M0 636.3636363636364 L177.77777777777777 636.3636363636364 L0 545.4545454545455 Z" fill="#27AAE1" opacity="0.9"/><path d="M0 636.3636363636364 L177.77777777777777 636.3636363636364 L177.77777777777777 727.2727272727273 Z" fill="#2E3191" opacity="0.23"/><path d="M0 818.1818181818181 L177.77777777777777 818.1818181818181 L0 727.2727272727273 Z" fill="#2E3191" opacity="0.22"/><path d="M0 818.1818181818181 L177.77777777777777 818.1818181818181 L177.77777777777777 909.090909090909 Z" fill="#2E3191" opacity="0.23"/><path d="M177.77777777777777 181.8181818181818 L355.55555555555554 181.8181818181818 L177.77777777777777 90.9090909090909 Z" fill="#27AAE1" opacity="0.9"/><path d="M177.77777777777777 181.8181818181818 L355.55555555555554 181.8181818181818 L355.55555555555554 272.72727272727275 Z" fill="#2E3191" opacity="0.18"/><path d="M177.77777777777777 363.6363636363636 L355.55555555555554 363.6363636363636 L355.55555555555554 454.5454545454545 Z" fill="#2E3191" opacity="0.21"/><path d="M177.77777777777777 545.4545454545454 L355.55555555555554 545.4545454545454 L177.77777777777777 454.5454545454545 Z" fill="#2E3191" opacity="0.21"/><path d="M177.77777777777777 727.2727272727273 L355.55555555555554 727.2727272727273 L177.77777777777777 636.3636363636364 Z" fill="#2E3191" opacity="0.21"/><path d="M177.77777777777777 727.2727272727273 L355.55555555555554 727.2727272727273 L355.55555555555554 818.1818181818181 Z" fill="#2E3191" opacity="0.21"/><path d="M177.77777777777777 909.090909090909 L355.55555555555554 909.090909090909 L177.77777777777777 818.1818181818181 Z" fill="#2E3191" opacity="0.21"/><path d="M177.77777777777777 909.090909090909 L355.55555555555554 909.090909090909 L355.55555555555554 999.9999999999999 Z" fill="#2E3191" opacity="0.19"/><path d="M355.55555555555554 90.9090909090909 L533.3333333333333 90.9090909090909 L355.55555555555554 0 Z" fill="#27AAE1" opacity="0.9"/><path d="M355.55555555555554 272.72727272727275 L533.3333333333333 272.72727272727275 L533.3333333333333 363.6363636363636 Z" fill="#2E3191" opacity="0.22"/><path d="M355.55555555555554 454.5454545454545 L533.3333333333333 454.5454545454545 L355.55555555555554 363.6363636363636 Z" fill="#2E3191" opacity="0.20"/><path d="M355.55555555555554 636.3636363636364 L533.3333333333333 636.3636363636364 L355.55555555555554 545.4545454545455 Z" fill="#27AAE1" opacity="0.9"/><path d="M355.55555555555554 636.3636363636364 L533.3333333333333 636.3636363636364 L533.3333333333333 727.2727272727273 Z" fill="#27AAE1" opacity="0.9"/><path d="M355.55555555555554 999.9999999999999 L533.3333333333333 999.9999999999999 L355.55555555555554 909.090909090909 Z" fill="#2E3191" opacity="0.25"/><path d="M533.3333333333333 0 L711.1111111111111 0 L711.1111111111111 90.9090909090909 Z" fill="#2E3191" opacity="0.17"/><path d="M533.3333333333333 363.6363636363636 L711.1111111111111 363.6363636363636 L533.3333333333333 272.72727272727275 Z" fill="#2E3191" opacity="0.17"/><path d="M533.3333333333333 363.6363636363636 L711.1111111111111 363.6363636363636 L711.1111111111111 454.5454545454545 Z" fill="#2E3191" opacity="0.20"/><path d="M533.3333333333333 545.4545454545454 L711.1111111111111 545.4545454545454 L533.3333333333333 454.5454545454545 Z" fill="#2E3191" opacity="0.25"/><path d="M533.3333333333333 545.4545454545455 L711.1111111111111 545.4545454545455 L711.1111111111111 636.3636363636364 Z" fill="#27AAE1" opacity="0.9"/><path d="M711.1111111111111 90.9090909090909 L888.8888888888889 90.9090909090909 L711.1111111111111 0 Z" fill="#27AAE1" opacity="0.9"/><path d="M711.1111111111111 454.5454545454545 L888.8888888888889 454.5454545454545 L711.1111111111111 363.6363636363636 Z" fill="#2E3191" opacity="0.18"/><path d="M711.1111111111111 454.5454545454545 L888.8888888888889 454.5454545454545 L888.8888888888889 545.4545454545454 Z" fill="#2E3191" opacity="0.22"/><path d="M711.1111111111111 636.3636363636364 L888.8888888888889 636.3636363636364 L711.1111111111111 545.4545454545455 Z" fill="#2E3191" opacity="0.25"/><path d="M711.1111111111111 818.1818181818181 L888.8888888888889 818.1818181818181 L711.1111111111111 727.2727272727273 Z" fill="#2E3191" opacity="0.19"/><path d="M711.1111111111111 818.1818181818181 L888.8888888888889 818.1818181818181 L888.8888888888889 909.090909090909 Z" fill="#27AAE1" opacity="0.9"/><path d="M888.8888888888889 0 L1066.6666666666667 0 L1066.6666666666667 90.9090909090909 Z" fill="#2E3191" opacity="0.26"/><path d="M888.8888888888889 181.8181818181818 L1066.6666666666667 181.8181818181818 L888.8888888888889 90.9090909090909 Z" fill="#27AAE1" opacity="0.9"/><path d="M888.8888888888889 181.8181818181818 L1066.6666666666667 181.8181818181818 L1066.6666666666667 272.72727272727275 Z" fill="#2E3191" opacity="0.20"/><path d="M888.8888888888889 363.6363636363636 L1066.6666666666667 363.6363636363636 L888.8888888888889 272.72727272727275 Z" fill="#2E3191" opacity="0.24"/><path d="M888.8888888888889 545.4545454545455 L1066.6666666666667 545.4545454545455 L1066.6666666666667 636.3636363636364 Z" fill="#2E3191" opacity="0.19"/><path d="M888.8888888888889 727.2727272727273 L1066.6666666666667 727.2727272727273 L1066.6666666666667 818.1818181818181 Z" fill="#2E3191" opacity="0.19"/><path d="M888.8888888888889 909.090909090909 L1066.6666666666667 909.090909090909 L888.8888888888889 818.1818181818181 Z" fill="#2E3191" opacity="0.19"/><path d="M1066.6666666666665 90.9090909090909 L1244.4444444444443 90.9090909090909 L1066.6666666666665 0 Z" fill="#2E3191" opacity="0.27"/><path d="M1066.6666666666665 272.72727272727275 L1244.4444444444443 272.72727272727275 L1244.4444444444443 363.6363636363636 Z" fill="#2E3191" opacity="0.25"/><path d="M1066.6666666666665 454.5454545454545 L1244.4444444444443 454.5454545454545 L1066.6666666666665 363.6363636363636 Z" fill="#2E3191" opacity="0.23"/><path d="M1066.6666666666665 454.5454545454545 L1244.4444444444443 454.5454545454545 L1244.4444444444443 545.4545454545454 Z" fill="#2E3191" opacity="0.18"/><path d="M1066.6666666666665 636.3636363636364 L1244.4444444444443 636.3636363636364 L1244.4444444444443 727.2727272727273 Z" fill="#2E3191" opacity="0.20"/><path d="M1066.6666666666665 999.9999999999999 L1244.4444444444443 999.9999999999999 L1066.6666666666665 909.090909090909 Z" fill="#27AAE1" opacity="0.9"/><path d="M1244.4444444444443 181.8181818181818 L1422.2222222222222 181.8181818181818 L1244.4444444444443 90.9090909090909 Z" fill="#2E3191" opacity="0.18"/><path d="M1244.4444444444443 181.8181818181818 L1422.2222222222222 181.8181818181818 L1422.2222222222222 272.72727272727275 Z" fill="#2E3191" opacity="0.24"/><path d="M1244.4444444444443 363.6363636363636 L1422.2222222222222 363.6363636363636 L1244.4444444444443 272.72727272727275 Z" fill="#27AAE1" opacity="0.9"/><path d="M1244.4444444444443 727.2727272727273 L1422.2222222222222 727.2727272727273 L1244.4444444444443 636.3636363636364 Z" fill="#2E3191" opacity="0.24"/><path d="M1244.4444444444443 727.2727272727273 L1422.2222222222222 727.2727272727273 L1422.2222222222222 818.1818181818181 Z" fill="#2E3191" opacity="0.18"/><path d="M1244.4444444444443 909.090909090909 L1422.2222222222222 909.090909090909 L1422.2222222222222 999.9999999999999 Z" fill="#27AAE1" opacity="0.9"/><path d="M1422.2222222222222 90.9090909090909 L1600 90.9090909090909 L1600 181.8181818181818 Z" fill="#2E3191" opacity="0.21"/><path d="M1422.2222222222222 454.5454545454545 L1600 454.5454545454545 L1422.2222222222222 363.6363636363636 Z" fill="#2E3191" opacity="0.20"/><path d="M1422.2222222222222 818.1818181818181 L1600 818.1818181818181 L1422.2222222222222 727.2727272727273 Z" fill="#2E3191" opacity="0.24"/><path d="M1422.2222222222222 818.1818181818181 L1600 818.1818181818181 L1600 909.090909090909 Z" fill="#2E3191" opacity="0.26"/><path d="M1422.2222222222222 999.9999999999999 L1600 999.9999999999999 L1422.2222222222222 909.090909090909 Z" fill="#2E3191" opacity="0.24"/></svg>